<svg width="134" height="30" viewBox="0 0 134 30" fill="none" xmlns="http://www.w3.org/2000/svg">
<g clip-path="url(#clip0_1_2)">
<path d="M14.796 12.2727V18.0818H22.7589C22.4092 19.95 21.3599 21.5319 19.7862 22.5955L24.5882 26.3729C27.386 23.7548 29.0001 19.9092 29.0001 15.3411C29.0001 14.2774 28.9059 13.2546 28.731 12.2729L14.796 12.2727Z" fill="#4285F4"/>
<path d="M6.50384 17.8552L5.42082 18.6957L1.58725 21.7229C4.02186 26.6184 9.01178 30.0003 14.7956 30.0003C18.7904 30.0003 22.1397 28.6639 24.5878 26.373L19.7858 22.5957C18.4676 23.4957 16.7863 24.0412 14.7956 24.0412C10.9487 24.0412 7.68021 21.4094 6.50989 17.8639L6.50384 17.8552Z" fill="#34A853"/>
<path d="M1.58724 8.27734C0.578481 10.2955 0.000152588 12.5728 0.000152588 15C0.000152588 17.4273 0.578481 19.7046 1.58724 21.7227C1.58724 21.7362 6.51036 17.8499 6.51036 17.8499C6.21444 16.9499 6.03953 15.9955 6.03953 14.9999C6.03953 14.0043 6.21444 13.0498 6.51036 12.1498L1.58724 8.27734Z" fill="#FBBC05"/>
<path d="M14.7959 5.97276C16.975 5.97276 18.9119 6.73638 20.4588 8.20913L24.6957 3.91371C22.1266 1.48646 18.7909 0 14.7959 0C9.01208 0 4.02186 3.36819 1.58725 8.27733L6.51022 12.1501C7.68038 8.60457 10.949 5.97276 14.7959 5.97276Z" fill="#EA4335"/>
<path d="M91.294 18.8882L88.0028 18.8397L86.6927 15.4669C86.4401 14.8444 85.5586 14.8444 85.3073 15.4669L83.9972 18.8397L80.706 18.8882C80.0248 18.9278 79.748 19.7837 80.2761 20.2136L82.9448 22.5277L82.0352 25.6875C81.8566 26.3368 82.5595 26.8726 83.1387 26.5281L86 24.9629L88.8613 26.5269C89.4405 26.8713 90.1433 26.3355 89.9648 25.6862L89.0552 22.5264L91.7239 20.2124C92.252 19.7825 91.9752 18.9265 91.294 18.8882Z" fill="#E7711B"/>
<path d="M119.294 18.8882L116.003 18.8397L114.693 15.4669C114.44 14.8444 113.559 14.8444 113.307 15.4669L111.997 18.8397L108.706 18.8882C108.025 18.9278 107.748 19.7837 108.276 20.2136L110.945 22.5277L110.035 25.6875C109.857 26.3368 110.56 26.8726 111.139 26.5281L114 24.9629L116.861 26.5269C117.44 26.8713 118.143 26.3355 117.965 25.6862L117.055 22.5264L119.724 20.2124C120.252 19.7825 119.975 18.9265 119.294 18.8882Z" fill="#E7711B"/>
<path d="M77.294 18.8882L74.0028 18.8397L72.6927 15.4669C72.4401 14.8444 71.5586 14.8444 71.3073 15.4669L69.9972 18.8397L66.706 18.8882C66.0248 18.9278 65.748 19.7837 66.2761 20.2136L68.9448 22.5277L68.0352 25.6875C67.8566 26.3368 68.5595 26.8726 69.1387 26.5281L72 24.9629L74.8613 26.5269C75.4405 26.8713 76.1433 26.3355 75.9648 25.6862L75.0552 22.5264L77.7239 20.2124C78.252 19.7825 77.9752 18.9265 77.294 18.8882Z" fill="#E7711B"/>
<path d="M105.294 18.8882L102.003 18.8397L100.693 15.4669C100.44 14.8444 99.5586 14.8444 99.3073 15.4669L97.9972 18.8397L94.706 18.8882C94.0248 18.9278 93.748 19.7837 94.2761 20.2136L96.9448 22.5277L96.0352 25.6875C95.8566 26.3368 96.5595 26.8726 97.1387 26.5281L100 24.9629L102.861 26.5269C103.44 26.8713 104.143 26.3355 103.965 25.6862L103.055 22.5264L105.724 20.2124C106.252 19.7825 105.975 18.9265 105.294 18.8882Z" fill="#E7711B"/>
<path d="M133.294 18.8882L130.003 18.8397L128.693 15.4669C128.44 14.8444 127.559 14.8444 127.307 15.4669L125.997 18.8397L122.706 18.8882C122.025 18.9278 121.748 19.7837 122.276 20.2136L124.945 22.5277L124.035 25.6875C123.857 26.3368 124.56 26.8726 125.139 26.5281L128 24.9629L130.861 26.5269C131.44 26.8713 132.143 26.3355 131.965 25.6862L131.055 22.5264L133.724 20.2124C134.252 19.7825 133.975 18.9265 133.294 18.8882Z" fill="#E7711B"/>
<path d="M46.8523 6C46.7741 5.76089 46.6712 5.54664 46.5433 5.35724C46.4179 5.16548 46.2675 5.00213 46.0923 4.86719C45.9195 4.73224 45.723 4.62926 45.5028 4.55824C45.2827 4.48722 45.0412 4.4517 44.7784 4.4517C44.3475 4.4517 43.9557 4.56297 43.603 4.78551C43.2502 5.00805 42.9697 5.33594 42.7614 5.76918C42.553 6.20241 42.4489 6.7339 42.4489 7.36364C42.4489 7.99337 42.5542 8.52486 42.7649 8.9581C42.9756 9.39134 43.2609 9.71922 43.6207 9.94176C43.9806 10.1643 44.3854 10.2756 44.8352 10.2756C45.2519 10.2756 45.6188 10.1868 45.9361 10.0092C46.2557 9.82931 46.5043 9.57599 46.6818 9.24929C46.8617 8.92022 46.9517 8.53314 46.9517 8.08807L47.2216 8.14489H45.0341V7.36364H47.804V8.14489C47.804 8.74384 47.6761 9.26468 47.4205 9.70739C47.1671 10.1501 46.8168 10.4934 46.3693 10.7372C45.9242 10.9787 45.4129 11.0994 44.8352 11.0994C44.1913 11.0994 43.6255 10.9479 43.1378 10.6449C42.6525 10.3419 42.2737 9.91098 42.0014 9.35227C41.7315 8.79356 41.5966 8.13068 41.5966 7.36364C41.5966 6.78835 41.6735 6.27107 41.8274 5.81179C41.9837 5.35014 42.2038 4.95715 42.4879 4.63281C42.772 4.30848 43.1082 4.0599 43.4964 3.88707C43.8847 3.71425 44.312 3.62784 44.7784 3.62784C45.1619 3.62784 45.5194 3.68584 45.8509 3.80185C46.1847 3.91548 46.4818 4.07765 46.7422 4.28835C47.005 4.49669 47.224 4.74645 47.3991 5.03764C47.5743 5.32647 47.6951 5.64725 47.7614 6H46.8523ZM51.4146 11.1136C50.9222 11.1136 50.4901 10.9964 50.1184 10.7621C49.7491 10.5277 49.4603 10.1998 49.252 9.77841C49.046 9.35701 48.943 8.86458 48.943 8.30114C48.943 7.73295 49.046 7.23698 49.252 6.81321C49.4603 6.38944 49.7491 6.06037 50.1184 5.82599C50.4901 5.59162 50.9222 5.47443 51.4146 5.47443C51.907 5.47443 52.3379 5.59162 52.7072 5.82599C53.0789 6.06037 53.3677 6.38944 53.5737 6.81321C53.782 7.23698 53.8862 7.73295 53.8862 8.30114C53.8862 8.86458 53.782 9.35701 53.5737 9.77841C53.3677 10.1998 53.0789 10.5277 52.7072 10.7621C52.3379 10.9964 51.907 11.1136 51.4146 11.1136ZM51.4146 10.3608C51.7886 10.3608 52.0964 10.2649 52.3379 10.0732C52.5794 9.88139 52.7581 9.62926 52.8741 9.31676C52.9901 9.00426 53.0481 8.66572 53.0481 8.30114C53.0481 7.93655 52.9901 7.59683 52.8741 7.28196C52.7581 6.96709 52.5794 6.71259 52.3379 6.51847C52.0964 6.32434 51.7886 6.22727 51.4146 6.22727C51.0405 6.22727 50.7328 6.32434 50.4913 6.51847C50.2498 6.71259 50.0711 6.96709 49.9551 7.28196C49.8391 7.59683 49.7811 7.93655 49.7811 8.30114C49.7811 8.66572 49.8391 9.00426 49.9551 9.31676C50.0711 9.62926 50.2498 9.88139 50.4913 10.0732C50.7328 10.2649 51.0405 10.3608 51.4146 10.3608ZM57.3814 11.1136C56.889 11.1136 56.4569 10.9964 56.0852 10.7621C55.7159 10.5277 55.4271 10.1998 55.2188 9.77841C55.0128 9.35701 54.9098 8.86458 54.9098 8.30114C54.9098 7.73295 55.0128 7.23698 55.2188 6.81321C55.4271 6.38944 55.7159 6.06037 56.0852 5.82599C56.4569 5.59162 56.889 5.47443 57.3814 5.47443C57.8738 5.47443 58.3047 5.59162 58.674 5.82599C59.0457 6.06037 59.3345 6.38944 59.5405 6.81321C59.7488 7.23698 59.853 7.73295 59.853 8.30114C59.853 8.86458 59.7488 9.35701 59.5405 9.77841C59.3345 10.1998 59.0457 10.5277 58.674 10.7621C58.3047 10.9964 57.8738 11.1136 57.3814 11.1136ZM57.3814 10.3608C57.7554 10.3608 58.0632 10.2649 58.3047 10.0732C58.5462 9.88139 58.7249 9.62926 58.8409 9.31676C58.9569 9.00426 59.0149 8.66572 59.0149 8.30114C59.0149 7.93655 58.9569 7.59683 58.8409 7.28196C58.7249 6.96709 58.5462 6.71259 58.3047 6.51847C58.0632 6.32434 57.7554 6.22727 57.3814 6.22727C57.0073 6.22727 56.6996 6.32434 56.4581 6.51847C56.2166 6.71259 56.0379 6.96709 55.9219 7.28196C55.8059 7.59683 55.7479 7.93655 55.7479 8.30114C55.7479 8.66572 55.8059 9.00426 55.9219 9.31676C56.0379 9.62926 56.2166 9.88139 56.4581 10.0732C56.6996 10.2649 57.0073 10.3608 57.3814 10.3608ZM63.334 13.1591C62.9292 13.1591 62.5811 13.107 62.29 13.0028C61.9988 12.901 61.7561 12.7661 61.562 12.598C61.3702 12.4323 61.2175 12.2547 61.1039 12.0653L61.7715 11.5966C61.8472 11.696 61.9431 11.8097 62.0591 11.9375C62.1751 12.0677 62.3337 12.1802 62.535 12.2749C62.7386 12.3719 63.0049 12.4205 63.334 12.4205C63.7743 12.4205 64.1377 12.3139 64.4242 12.1009C64.7106 11.8878 64.8539 11.554 64.8539 11.0994V9.99148H64.7828C64.7213 10.0909 64.6337 10.214 64.5201 10.3608C64.4088 10.5052 64.2478 10.6342 64.0371 10.7479C63.8288 10.8591 63.5471 10.9148 63.1919 10.9148C62.7516 10.9148 62.3562 10.8106 62.0059 10.6023C61.6578 10.3939 61.382 10.0909 61.1784 9.69318C60.9772 9.29545 60.8766 8.8125 60.8766 8.24432C60.8766 7.68561 60.9748 7.1991 61.1713 6.7848C61.3678 6.36813 61.6413 6.04616 61.9917 5.81889C62.342 5.58925 62.7469 5.47443 63.2061 5.47443C63.5613 5.47443 63.843 5.53362 64.0513 5.65199C64.262 5.76799 64.423 5.90057 64.5343 6.04972C64.6479 6.1965 64.7355 6.31723 64.7971 6.41193H64.8823V5.54545H65.6919V11.1562C65.6919 11.625 65.5854 12.0062 65.3723 12.2997C65.1616 12.5956 64.8775 12.8123 64.5201 12.9496C64.165 13.0893 63.7696 13.1591 63.334 13.1591ZM63.3056 10.1619C63.6417 10.1619 63.9258 10.085 64.1578 9.93111C64.3899 9.77723 64.5662 9.55587 64.687 9.26705C64.8077 8.97822 64.8681 8.63258 64.8681 8.23011C64.8681 7.83712 64.8089 7.49029 64.6905 7.18963C64.5721 6.88897 64.397 6.65341 64.165 6.48295C63.9329 6.3125 63.6465 6.22727 63.3056 6.22727C62.9505 6.22727 62.6545 6.31723 62.4178 6.49716C62.1834 6.67708 62.007 6.91856 61.8887 7.22159C61.7727 7.52462 61.7147 7.8608 61.7147 8.23011C61.7147 8.6089 61.7739 8.94389 61.8922 9.23509C62.013 9.52391 62.1905 9.75118 62.4249 9.9169C62.6616 10.0803 62.9552 10.1619 63.3056 10.1619ZM68.0641 3.72727V11H67.226V3.72727H68.0641ZM71.886 11.1136C71.3604 11.1136 70.9071 10.9976 70.5259 10.7656C70.1471 10.5312 69.8548 10.2045 69.6488 9.78551C69.4452 9.36411 69.3434 8.87405 69.3434 8.31534C69.3434 7.75663 69.4452 7.2642 69.6488 6.83807C69.8548 6.40956 70.1412 6.07576 70.5082 5.83665C70.8775 5.59517 71.3084 5.47443 71.8008 5.47443C72.0849 5.47443 72.3654 5.52178 72.6424 5.61648C72.9194 5.71117 73.1715 5.86506 73.3988 6.07812C73.6261 6.28883 73.8072 6.56818 73.9421 6.91619C74.0771 7.2642 74.1445 7.69271 74.1445 8.2017V8.55682H69.94V7.83239H73.2923C73.2923 7.52462 73.2307 7.25 73.1076 7.00852C72.9869 6.76705 72.814 6.57647 72.5891 6.43679C72.3666 6.29711 72.1038 6.22727 71.8008 6.22727C71.467 6.22727 71.1781 6.31013 70.9343 6.47585C70.6928 6.6392 70.507 6.85227 70.3768 7.11506C70.2466 7.37784 70.1815 7.65956 70.1815 7.96023V8.44318C70.1815 8.85511 70.2525 9.20431 70.3945 9.49077C70.5389 9.77486 70.739 9.99148 70.9947 10.1406C71.2504 10.2874 71.5475 10.3608 71.886 10.3608C72.1062 10.3608 72.305 10.33 72.4826 10.2685C72.6625 10.2045 72.8176 10.1098 72.9478 9.98438C73.078 9.85653 73.1786 9.69792 73.2496 9.50852L74.0593 9.7358C73.9741 10.0104 73.8308 10.2519 73.6296 10.4602C73.4284 10.6662 73.1798 10.8272 72.8839 10.9432C72.5879 11.0568 72.2553 11.1136 71.886 11.1136ZM78.3455 11V3.72727H80.8029C81.3711 3.72727 81.8375 3.82434 82.2021 4.01847C82.5666 4.21023 82.8365 4.47419 83.0117 4.81037C83.1869 5.14654 83.2745 5.52888 83.2745 5.95739C83.2745 6.38589 83.1869 6.76586 83.0117 7.0973C82.8365 7.42874 82.5678 7.68916 82.2056 7.87855C81.8434 8.06558 81.3806 8.15909 80.8171 8.15909H78.8285V7.36364H80.7887C81.177 7.36364 81.4895 7.30682 81.7262 7.19318C81.9653 7.07955 82.1381 6.91856 82.2447 6.71023C82.3536 6.49953 82.408 6.24858 82.408 5.95739C82.408 5.66619 82.3536 5.41169 82.2447 5.19389C82.1358 4.97609 81.9618 4.808 81.7227 4.68963C81.4835 4.56889 81.1675 4.50852 80.7745 4.50852H79.2262V11H78.3455ZM81.7688 7.73295L83.5586 11H82.5359L80.7745 7.73295H81.7688ZM86.2335 11.1278C85.8878 11.1278 85.5742 11.0627 85.2924 10.9325C85.0107 10.8 84.787 10.6094 84.6213 10.3608C84.4556 10.1098 84.3727 9.80682 84.3727 9.4517C84.3727 9.1392 84.4342 8.88589 84.5574 8.69176C84.6805 8.49527 84.845 8.34138 85.051 8.23011C85.2569 8.11884 85.4842 8.03598 85.7328 7.98153C85.9837 7.92472 86.2359 7.87973 86.4892 7.84659C86.8206 7.80398 87.0893 7.77202 87.2953 7.75071C87.5036 7.72704 87.6551 7.68797 87.7498 7.63352C87.8469 7.57907 87.8954 7.48437 87.8954 7.34943V7.32102C87.8954 6.97064 87.7995 6.69839 87.6078 6.50426C87.4184 6.31013 87.1307 6.21307 86.7449 6.21307C86.3448 6.21307 86.0311 6.30066 85.8038 6.47585C85.5765 6.65104 85.4167 6.83807 85.3244 7.03693L84.5289 6.75284C84.671 6.4214 84.8604 6.16335 85.0971 5.97869C85.3362 5.79167 85.5967 5.66146 85.8784 5.58807C86.1625 5.51231 86.4418 5.47443 86.7164 5.47443C86.8916 5.47443 87.0929 5.49574 87.3201 5.53835C87.5498 5.5786 87.7711 5.66264 87.9842 5.79048C88.1996 5.91832 88.3784 6.11127 88.5204 6.36932C88.6625 6.62737 88.7335 6.97301 88.7335 7.40625V11H87.8954V10.2614H87.8528C87.796 10.3797 87.7013 10.5064 87.5687 10.6413C87.4361 10.7763 87.2598 10.8911 87.0396 10.9858C86.8194 11.0805 86.5507 11.1278 86.2335 11.1278ZM86.3613 10.375C86.6928 10.375 86.9721 10.3099 87.1994 10.1797C87.429 10.0495 87.6019 9.88139 87.7179 9.67543C87.8362 9.46946 87.8954 9.25284 87.8954 9.02557V8.25852C87.8599 8.30114 87.7818 8.3402 87.661 8.37571C87.5427 8.40885 87.4054 8.43845 87.2491 8.46449C87.0952 8.48816 86.9449 8.50947 86.7981 8.52841C86.6537 8.54498 86.5365 8.55919 86.4466 8.57102C86.2288 8.59943 86.0252 8.6456 85.8358 8.70952C85.6487 8.77107 85.4972 8.86458 85.3812 8.99006C85.2676 9.11316 85.2108 9.28125 85.2108 9.49432C85.2108 9.78551 85.3185 10.0057 85.5339 10.1548C85.7517 10.3016 86.0275 10.375 86.3613 10.375ZM92.6353 5.54545V6.25568H89.8086V5.54545H92.6353ZM90.6325 4.23864H91.4705V9.4375C91.4705 9.67424 91.5049 9.8518 91.5735 9.97017C91.6445 10.0862 91.7345 10.1643 91.8434 10.2045C91.9547 10.2424 92.0719 10.2614 92.195 10.2614C92.2873 10.2614 92.363 10.2566 92.4222 10.2472C92.4814 10.2353 92.5288 10.2259 92.5643 10.2188L92.7347 10.9716C92.6779 10.9929 92.5986 11.0142 92.4968 11.0355C92.395 11.0592 92.266 11.071 92.1097 11.071C91.873 11.071 91.641 11.0201 91.4137 10.9183C91.1888 10.8165 91.0018 10.6615 90.8526 10.4531C90.7058 10.2448 90.6325 9.98201 90.6325 9.66477V4.23864ZM93.896 11V5.54545H94.734V11H93.896ZM94.3221 4.63636C94.1587 4.63636 94.0179 4.58073 93.8995 4.46946C93.7835 4.35819 93.7255 4.22443 93.7255 4.06818C93.7255 3.91193 93.7835 3.77817 93.8995 3.6669C94.0179 3.55563 94.1587 3.5 94.3221 3.5C94.4854 3.5 94.6251 3.55563 94.7411 3.6669C94.8595 3.77817 94.9187 3.91193 94.9187 4.06818C94.9187 4.22443 94.8595 4.35819 94.7411 4.46946C94.6251 4.58073 94.4854 4.63636 94.3221 4.63636ZM97.1071 7.71875V11H96.269V5.54545H97.0787V6.39773H97.1497C97.2775 6.12074 97.4717 5.8982 97.7321 5.73011C97.9925 5.55966 98.3287 5.47443 98.7406 5.47443C99.1099 5.47443 99.4331 5.55019 99.71 5.7017C99.987 5.85085 100.202 6.07812 100.356 6.38352C100.51 6.68655 100.587 7.07008 100.587 7.53409V11H99.7491V7.59091C99.7491 7.16241 99.6378 6.8286 99.4153 6.58949C99.1928 6.34801 98.8874 6.22727 98.4991 6.22727C98.2316 6.22727 97.9925 6.28527 97.7818 6.40128C97.5734 6.51728 97.4089 6.68655 97.2882 6.90909C97.1674 7.13163 97.1071 7.40152 97.1071 7.71875ZM104.32 13.1591C103.915 13.1591 103.567 13.107 103.276 13.0028C102.985 12.901 102.742 12.7661 102.548 12.598C102.357 12.4323 102.204 12.2547 102.09 12.0653L102.758 11.5966C102.834 11.696 102.929 11.8097 103.045 11.9375C103.161 12.0677 103.32 12.1802 103.521 12.2749C103.725 12.3719 103.991 12.4205 104.32 12.4205C104.761 12.4205 105.124 12.3139 105.411 12.1009C105.697 11.8878 105.84 11.554 105.84 11.0994V9.99148H105.769C105.708 10.0909 105.62 10.214 105.506 10.3608C105.395 10.5052 105.234 10.6342 105.023 10.7479C104.815 10.8591 104.533 10.9148 104.178 10.9148C103.738 10.9148 103.343 10.8106 102.992 10.6023C102.644 10.3939 102.368 10.0909 102.165 9.69318C101.964 9.29545 101.863 8.8125 101.863 8.24432C101.863 7.68561 101.961 7.1991 102.158 6.7848C102.354 6.36813 102.628 6.04616 102.978 5.81889C103.328 5.58925 103.733 5.47443 104.192 5.47443C104.548 5.47443 104.829 5.53362 105.038 5.65199C105.248 5.76799 105.409 5.90057 105.521 6.04972C105.634 6.1965 105.722 6.31723 105.783 6.41193H105.869V5.54545H106.678V11.1562C106.678 11.625 106.572 12.0062 106.359 12.2997C106.148 12.5956 105.864 12.8123 105.506 12.9496C105.151 13.0893 104.756 13.1591 104.32 13.1591ZM104.292 10.1619C104.628 10.1619 104.912 10.085 105.144 9.93111C105.376 9.77723 105.553 9.55587 105.673 9.26705C105.794 8.97822 105.854 8.63258 105.854 8.23011C105.854 7.83712 105.795 7.49029 105.677 7.18963C105.558 6.88897 105.383 6.65341 105.151 6.48295C104.919 6.3125 104.633 6.22727 104.292 6.22727C103.937 6.22727 103.641 6.31723 103.404 6.49716C103.17 6.67708 102.993 6.91856 102.875 7.22159C102.759 7.52462 102.701 7.8608 102.701 8.23011C102.701 8.6089 102.76 8.94389 102.879 9.23509C102.999 9.52391 103.177 9.75118 103.411 9.9169C103.648 10.0803 103.942 10.1619 104.292 10.1619Z" fill="black"/>
<path d="M38.5241 25.6577V25.0057L41.4006 20.4545H41.8736V21.4645H41.554L39.3807 24.9034V24.9545H43.2543V25.6577H38.5241ZM41.6051 27V25.4595V25.1559V20.4545H42.3594V27H41.6051ZM44.7069 27.0511C44.5492 27.0511 44.4139 26.9947 44.301 26.8817C44.188 26.7688 44.1316 26.6335 44.1316 26.4759C44.1316 26.3182 44.188 26.1829 44.301 26.07C44.4139 25.957 44.5492 25.9006 44.7069 25.9006C44.8645 25.9006 44.9998 25.957 45.1127 26.07C45.2257 26.1829 45.2821 26.3182 45.2821 26.4759C45.2821 26.5803 45.2555 26.6761 45.2022 26.7635C45.1511 26.8509 45.0819 26.9212 44.9945 26.9744C44.9093 27.0256 44.8134 27.0511 44.7069 27.0511ZM48.6452 20.3651C48.9136 20.3672 49.1821 20.4183 49.4506 20.5185C49.719 20.6186 49.964 20.7848 50.1856 21.017C50.4072 21.2472 50.5851 21.5614 50.7194 21.9599C50.8536 22.3583 50.9207 22.858 50.9207 23.4588C50.9207 24.0405 50.8653 24.5572 50.7545 25.0089C50.6459 25.4585 50.4882 25.8377 50.2815 26.1467C50.077 26.4556 49.8277 26.69 49.5336 26.8498C49.2417 27.0096 48.9115 27.0895 48.5429 27.0895C48.1764 27.0895 47.8493 27.017 47.5617 26.8722C47.2762 26.7251 47.0418 26.5217 46.8586 26.2617C46.6775 25.9996 46.5613 25.696 46.5102 25.3509H47.29C47.3604 25.6513 47.4999 25.8995 47.7087 26.0955C47.9197 26.2894 48.1977 26.3864 48.5429 26.3864C49.0479 26.3864 49.4463 26.1658 49.7382 25.7248C50.0322 25.2837 50.1792 24.6605 50.1792 23.8551H50.1281C50.0088 24.0341 49.8671 24.1886 49.703 24.3185C49.539 24.4485 49.3568 24.5487 49.1565 24.619C48.9562 24.6893 48.7432 24.7244 48.5173 24.7244C48.1423 24.7244 47.7982 24.6317 47.485 24.4464C47.1739 24.2589 46.9246 24.0021 46.7371 23.6761C46.5518 23.348 46.4591 22.973 46.4591 22.5511C46.4591 22.1506 46.5486 21.7841 46.7275 21.4517C46.9086 21.1172 47.1622 20.8509 47.4882 20.6527C47.8163 20.4545 48.202 20.3587 48.6452 20.3651ZM48.6452 21.0682C48.3767 21.0682 48.1349 21.1353 47.9197 21.2695C47.7066 21.4016 47.5372 21.5806 47.4115 21.8065C47.2879 22.0302 47.2261 22.2784 47.2261 22.5511C47.2261 22.8239 47.2858 23.0721 47.4051 23.2958C47.5265 23.5174 47.6917 23.6942 47.9005 23.8263C48.1114 23.9563 48.3511 24.0213 48.6196 24.0213C48.822 24.0213 49.0106 23.9819 49.1853 23.9031C49.36 23.8221 49.5123 23.7124 49.6423 23.5739C49.7744 23.4332 49.8778 23.2745 49.9523 23.0977C50.0269 22.9187 50.0642 22.7322 50.0642 22.5384C50.0642 22.2827 50.0024 22.043 49.8788 21.8192C49.7574 21.5955 49.589 21.4144 49.3738 21.2759C49.1608 21.1374 48.9179 21.0682 48.6452 21.0682ZM54.5043 20.1477L52.3949 27.9844H51.7045L53.8139 20.1477H54.5043ZM57.431 27.0895C57.056 27.0895 56.7183 27.0149 56.4179 26.8658C56.1175 26.7166 55.8767 26.5121 55.6956 26.2521C55.5145 25.9922 55.4154 25.696 55.3983 25.3636H56.1654C56.1952 25.6598 56.3295 25.9048 56.5681 26.0987C56.8089 26.2905 57.0965 26.3864 57.431 26.3864C57.6995 26.3864 57.9381 26.3235 58.1469 26.1978C58.3579 26.0721 58.523 25.8995 58.6423 25.68C58.7638 25.4585 58.8245 25.2081 58.8245 24.929C58.8245 24.6435 58.7616 24.3888 58.6359 24.1651C58.5123 23.9393 58.3419 23.7614 58.1246 23.6314C57.9072 23.5014 57.659 23.4354 57.3799 23.4332C57.1796 23.4311 56.974 23.462 56.7631 23.5259C56.5521 23.5877 56.3785 23.6676 56.2421 23.7656L55.5006 23.6761L55.8969 20.4545H59.2975V21.1577H56.5617L56.3316 23.0881H56.3699C56.5042 22.9815 56.6725 22.8931 56.8749 22.8228C57.0773 22.7525 57.2883 22.7173 57.5077 22.7173C57.9083 22.7173 58.2652 22.8132 58.5784 23.005C58.8937 23.1946 59.1409 23.4545 59.3199 23.7848C59.501 24.1151 59.5915 24.4922 59.5915 24.9162C59.5915 25.3338 59.4978 25.7067 59.3103 26.0348C59.1249 26.3608 58.8692 26.6186 58.5432 26.8082C58.2172 26.9957 57.8465 27.0895 57.431 27.0895Z" fill="#E7711B"/>
</g>
<defs>
<clipPath id="clip0_1_2">
<rect width="134" height="30" fill="white"/>
</clipPath>
</defs>
</svg>
